/* XPM */
static char * base_xpm[] = {
"275 14 10 1",
" 	c None",
".	c #2E2E2E",
"+	c #2A2A2A",
"@	c #000305",
"#	c #000000",
"$	c #393939",
"%	c #9B9B9B",
"&	c #151515",
"*	c #FFFFFF",
"=	c #F4E304",
"...................................................................................................................................................................................................................................................................................",
"+@@@@@@@@@@@@@@@@@@@@@@@@@@@@@@@@@@@@@@@@@@@@@@@@@@@@@@@@@@@@@@@@@@@@@@@@@@@@@@@@@@@@@@@@@@@@@@@@@@@@@@@@@@@@@@@@@@@@@@@@@@@@@@@@@@@@@@@@@@@@@@@@@@@@@@@@@@@@@@@@@@@@@@@@@@@@@@@@@@@@@@@@@@@@@@@@@@@@@@@@@@@@@@@@@@@@@@@@@@@@@@@@@@@@@@@@@@@@@@@@@@@##$############$###########$##+",
"+@@@@@@@@@@@@@@@@@@@@@@@@@@@@@@@@@@@@@@@@@@@@@@@@@@@@@@@@@@@@@@@@@@@@@@@@@@@@@@@@@@@@@@@@@@@@@@@@@@@@@@@@@@@@@@@@@@@@@@@@@@@@@@@@@@@@@@@@@@@@@@@@@@@@@@@@@@@@@@@@@@@@@@@@@@@@@@@@@@@@@@@@@@@@@@@@@@@@@@@@@@@@@@@@@@@@@@@@@@@@@@@@@@@@@@@@@@@@@@@@@@@##$############$###########$##+",
"+@@@@@@@@@@@@@@@@@@@@@@@@@@@@@@@@@@@@@@@@@@@@@@@@@@@@@@@@@@@@@@@@@@@@@@@@@@@@@@@@@@@@@@@@@@@@@@@@@@@@@@@@@@@@@@@@@@@@@@@@@@@@@@@@@@@@@@@@@@@@@@@@@@@@@@@@@@@@@@@@@@@@@@@@@@@@@@@@@@@@@@@@@@@@@@@@@@@@@@@@@@@@@@@@@@@@@@@@@@@@@@@@@@@@@@@@@@@@@@@@@@@##$####%%%%%###$###%###%###$##+",
"+@@@@@@@@@@@@@@@@@@@@@@@@@@@@@@@@@@@@@@@@@@@@@@@@@@@@@@@@@@@@@@@@@@@@@@@@@@@@@@@@@@@@@@@@@@@@@@@@@@@@@@@@@@@@@@@@@@@@@@@@@@@@@@@@@@@@@@@@@@@@@@@@@@@@@@@@@@@@@@@@@@@@@@@@@@@@@@@&&&&&&&&&&&&&&&&&&&&&&&&&&&&&&&&&&&&&&&&&&&&&&&&&&&&&&&&@@@@@@@@@@@@##$####%%%%%###$####%#%####$##+",
"+@@@@%%%%%@@@@@@@%@@@%@@%@@%@@%@@@%%@@@%@@@%@@%%%@@@@@@@@@@@@@@@@@@@@@@@@@@@@@@@@@@@@@@@@@@@@@@@@@@@@@@@@@@@@@@@@@@@@@@@@@@@@@@@@@@@@@**@@@**@@@@@@**@@@@**@@@@@@@@@@@@@@@@@@@@@&&&%&&&%&&&&&%&&&&&&%%&%%&&&&&%%%%&&&&&%&&&%&&&&&&&&%&&&@@@@@@@@@@@@##$####%###%###$#####%#####$##+",
"+@@@@@%%%@@@@@@@@%@@@%@@%@@%%@%@@%@@%@@%%@%%@@%@@%@@@@@@@@@@@@@@@@@@@@@@@@@@@@@@@@@@@@@@@@@@@@@@@@@@@@@@@@@@@@@@@@@@@@@@@@@@@@@@@@@@@*@@*@@@*@@*@@*@@*@@*@@*@@@@@@@@@@@@@@@@@@@@&&%%&&%%&&&&&%%&&&&&%%&%%&&&&&%%%%&&&&&%%&&%%&&&&&&%%%&&@@@@@@@@@@@@##$####%###%###$####%#%####$##+",
"+@@@@@@%@@@@@@@@@%@%@%@@%@@%@%%@@%%%%@@%@%@%@@%%%@@@@@@@@@@@@@================================================@@@@@@@@@@@@@@@@@****@@*@@*@@@*@@@@@@@*@@@@***@@@@@@@@@@@@@@@@@@@@&%%&&%%&&&&&&&%%&&&&%%&%%&&&&&%%%%&&&&&&%%&&%%&&&&%%&%%&@@@@@@@@@@@@##$####%%%%%###$###%###%###$##+",
"+@@@@@@@@@@@@@@@@%%@%%@@%@@%@@%@@%@@%@@%@@@%@@%@@@@@@@@@@@@@@@@@@@@@@@@@@@@@@@@@@@@@@@@@@@@@@@@@@@@@@@@@@@@@@@@@@@@@@@@@@@@@@@@@@@@@@*@@*@@@*@@*@@@*@@@@@@@*@@@@@@@@@@@@@@@@@@@@&&%%&&%%&&&&&%%&&&&&%%&%%&&&&&%%%%&&&&&%%&&%%&&&&&&&&&&&@@@@@@@@@@@@##$############$###########$##+",
"+@@@@@@@@@@@@@@@@%@@@%@@%@@%@@%@@%@@%@@%@@@%@@%@@@@@@@@@@@@@@@@@@@@@@@@@@@@@@@@@@@@@@@@@@@@@@@@@@@@@@@@@@@@@@@@@@@@@@@@@@@@@@@@@@@@@@@**@@@@*@@@@@****@@@**@@@@@@@@@@@@@@@@@@@@@&&&%&&&%&&&&&%&&&&&&%%&%%&&&&&%%%%&&&&&%&&&%&&&&&&%%%%%&@@@@@@@@@@@@##$############$###########$##+",
"+@@@@@@@@@@@@@@@@@@@@@@@@@@@@@@@@@@@@@@@@@@@@@@@@@@@@@@@@@@@@@@@@@@@@@@@@@@@@@@@@@@@@@@@@@@@@@@@@@@@@@@@@@@@@@@@@@@@@@@@@@@@@@@@@@@@@@@@@@@@@@@@@@@@@@@@@@@@@@@@@@@@@@@@@@@@@@@@&&&&&&&&&&&&&&&&&&&&&&&&&&&&&&&&&&&&&&&&&&&&&&&&&&&&&&&&@@@@@@@@@@@@###$$$$$$$$$$$$$$$$$$$$$$$$###+",
"+@@@@@@@@@@@@@@@@@@@@@@@@@@@@@@@@@@@@@@@@@@@@@@@@@@@@@@@@@@@@@@@@@@@@@@@@@@@@@@@@@@@@@@@@@@@@@@@@@@@@@@@@@@@@@@@@@@@@@@@@@@@@@@@@@@@@@@@@@@@@@@@@@@@@@@@@@@@@@@@@@@@@@@@@@@@@@@@@@@@@@@@@@@@@@@@@@@@@@@@@@@@@@@@@@@@@@@@@@@@@@@@@@@@@@@@@@@@@@@@@@@@##############################+",
"+@@@@@@@@@@@@@@@@@@@@@@@@@@@@@@@@@@@@@@@@@@@@@@@@@@@@@@@@@@@@@@@@@@@@@@@@@@@@@@@@@@@@@@@@@@@@@@@@@@@@@@@@@@@@@@@@@@@@@@@@@@@@@@@@@@@@@@@@@@@@@@@@@@@@@@@@@@@@@@@@@@@@@@@@@@@@@@@@@@@@@@@@@@@@@@@@@@@@@@@@@@@@@@@@@@@@@@@@@@@@@@@@@@@@@@@@@@@@@@@@@@@##############################+",
"+++++++++++++++++++++++++++++++++++++++++++++++++++++++++++++++++++++++++++++++++++++++++++++++++++++++++++++++++++++++++++++++++++++++++++++++++++++++++++++++++++++++++++++++++++++++++++++++++++++++++++++++++++++++++++++++++++++++++++++++++++++++++++++++++++++++++++++++++++"};
