/* XPM */
static char * bottom_left_active_xpm[] = {
"10 1 2 1",
" 	c None",
".	c #2E2E2E",
" ........."};
