/* XPM */
static char * close_active_xpm[] = {
"17 10 4 1",
" 	c None",
".	c #393939",
"+	c #000305",
"@	c #9B9B9B",
".+++++++++++.    ",
".+++++++++++.    ",
".+++@+++@+++.    ",
".++++@+@++++.    ",
".+++++@+++++.    ",
".++++@+@++++.    ",
".+++@+++@+++.    ",
".+++++++++++.    ",
".+++++++++++.    ",
"............     "};
