/* XPM */
static char * menu_active_xpm[] = {
"17 13 3 1",
" 	c None",
".	c #000305",
"+	c #B5B5B5",
"                 ",
"                 ",
".................",
".................",
".................",
"......+++++......",
".......+++.......",
"........+........",
".................",
".................",
".................",
".................",
"................."};
