/* XPM */
static char * title_1_inactive_xpm[] = {
"1 13 3 1",
" 	c None",
".	c #2E2E2E",
"+	c #000305",
" ",
".",
"+",
"+",
"+",
"+",
"+",
"+",
"+",
"+",
"+",
"+",
"+"};
