/* XPM */
static char * top_right_active_xpm[] = {
"9 13 3 1",
" 	c None",
".	c #2E2E2E",
"+	c #000305",
"         ",
".........",
"++++++++.",
"++++++++.",
"++++++++.",
"++++++++.",
"++++++++.",
"++++++++.",
"++++++++.",
"++++++++.",
"++++++++.",
"++++++++.",
"++++++++."};
