/* XPM */
static char * top_left_active_xpm[] = {
"10 13 3 1",
" 	c None",
".	c #2E2E2E",
"+	c #000305",
"          ",
" .........",
" .++++++++",
" .++++++++",
" .++++++++",
" .++++++++",
" .++++++++",
" .++++++++",
" .++++++++",
" .++++++++",
" .++++++++",
" .++++++++",
" .++++++++"};
